<svg class="svg--white" width="260px" height="50px" viewBox="0 0 380 61" version="1.1" xmlns="http://www.w3.org/2000/svg" xmlns:xlink="http://www.w3.org/1999/xlink">
              <g id="Page-1" stroke="none" stroke-width="1" fill="none" fill-rule="evenodd">
                  <g id="DA-logo-white-rgb-380x61" fill-rule="nonzero" fill="#FFFFFF">
                      <g id="Text" transform="translate(83.000000, 0.000000)">
                          <path d="M40.7,8.2 C33.4,1 26.4,0 20.1,0 L0.4,0 L0.4,59.5 L18.8,59.5 C31.1,59.5 38.6,53.2 41.2,50.5 C46.4,45.3 48.8,38.6 48.8,29.9 C48.8,20.8 46.1,13.5 40.7,8.2 Z M29.7,43.3 C25.3,47.7 22.2,48 18.4,48 L14,48 L14,11.5 L19,11.5 C23.3,11.5 25.7,12.1 29.6,15.6 C32.8,18.7 34.7,23.9 34.7,29.8 C34.6,37 31.9,41.1 29.7,43.3 Z" id="Shape"></path>
                          <path d="M74.1,50.4 C71.2,50.4 68.4,48.8 67.1,47.4 C65.2,45.5 64,42.8 64,40.1 C64,38 64.9,35 67.2,32.8 C69.9,30.1 73,29.9 74.1,29.9 C76.8,29.9 79.2,30.8 81.1,32.8 C83.6,35.3 84.2,38.1 84.2,40.1 C84.2,42.9 83.3,45.3 81.3,47.3 C79.2,49.3 76.7,50.4 74.1,50.4 M72,19.4 C66.8,19.4 61.6,21.5 58.2,24.9 C56,27.1 52.3,32.2 52.3,40.5 C52.3,46.3 54,50.6 57.8,54.8 C61.6,58.9 66.2,61 71.5,61 C74.4,61 79.8,60.3 83.2,55.6 L84.9,53.2 L84.9,59.6 L96.1,59.6 L96.1,20.7 L84.9,20.7 L84.9,26.1 L83.3,24.3 C81.6,22.5 77.9,19.4 72,19.4" id="Shape"></path>
                          <path d="M152.8,50.4 C149.9,50.4 147.1,48.8 145.8,47.4 C143.9,45.5 142.7,42.8 142.7,40.1 C142.7,38 143.6,35 145.9,32.8 C148.6,30.1 151.7,29.9 152.8,29.9 C155.5,29.9 157.9,30.8 159.8,32.8 C162.3,35.3 162.9,38.1 162.9,40.1 C162.9,42.9 162,45.3 160,47.3 C158,49.3 155.4,50.4 152.8,50.4 M150.8,19.4 C145.6,19.4 140.4,21.5 137,24.9 C134.8,27.1 131.1,32.2 131.1,40.5 C131.1,46.3 132.8,50.6 136.6,54.8 C140.4,58.9 145,61 150.3,61 C153.2,61 158.6,60.3 162,55.6 L163.7,53.2 L163.7,59.6 L174.9,59.6 L174.9,20.7 L163.7,20.7 L163.7,26.1 L162.1,24.3 C160.4,22.5 156.8,19.4 150.8,19.4" id="Shape"></path>
                          <polygon id="Shape" points="108.1 0 108.1 20.7 103.6 20.7 103.6 30.8 108.1 30.8 108.1 59.6 120.5 59.6 120.5 30.8 128.7 30.8 128.7 20.7 120.5 20.7 120.5 0"></polygon>
                          <polygon id="Shape" points="276.4 0 276.4 59.6 288.8 59.6 288.8 30.8 297 30.8 297 20.7 288.8 20.7 288.8 0"></polygon>
                          <path d="M218.9,39.4 L201.9,39.4 L210.3,14 L218.9,39.4 Z M226,59.5 L240.2,59.5 L218.2,0 L202.7,0 L180.3,59.5 L194.3,59.5 L198.4,49.1 L222.2,49.1 L226,59.5 Z" id="Shape"></path>
                          <path d="M244.6,59.6 L257.1,59.6 L257.1,43.1 C257.1,41.5 257.1,36.4 260.6,33.1 C262.4,31.5 264.7,30.7 267.7,30.7 C269.8,30.7 272.1,30.8 272.9,30.8 L272.9,20.8 C272.3,20.8 272,20.7 271.6,20.7 L271.4,20.7 L271,20.7 L270.5,20.7 C268.1,20.7 265.9,20.7 264.1,21.6 C261.9,22.7 260.1,24.5 258.9,26.8 L257.2,30.2 L257.2,20.7 L244.7,20.7 L244.6,59.6 L244.6,59.6 Z" id="Shape"></path>
                      </g>
                      <g id="Tangram">
                          <polygon id="Shape" points="0 57.9 0 1.7 28.2 29.8"></polygon>
                          <rect id="Rectangle-path" transform="translate(45.225860, 29.807060) rotate(-45.008103) translate(-45.225860, -29.807060) " x="35.4259539" y="20.0071539" width="19.5998122" height="19.5998122"></rect>
                          <polygon id="Shape" points="29.7 31.4 17.1 44.1 42.5 44.1"></polygon>
                          <polygon id="Shape" points="1.6 0 57.9 0 29.7 28.1"></polygon>
                          <polygon id="Shape" points="59.6 27 59.6 1.7 46.9 14.3"></polygon>
                          <polygon id="Shape" points="59.6 32.5 32.6 59.5 59.6 59.5"></polygon>
                          <polygon id="Shape" points="14.8 46.4 42.5 46.4 29.3 59.5 1.6 59.5"></polygon>
                      </g>
                  </g>
              </g>
          </svg>